<?xml version="1.0" encoding="UTF-8"?>
<svg version="1.1" xmlns="http://www.w3.org/2000/svg" width="32" height="32">
<path d="M0 0 C0 9.24 0 18.48 0 28 C-10.56 28 -21.12 28 -32 28 C-32 18.76 -32 9.52 -32 0 C-16.52332493 -5.15889169 -15.47667507 -5.15889169 0 0 Z M-30 3 C-30.08713831 4.70772358 -30.10700007 6.41898649 -30.09765625 8.12890625 C-30.09443359 9.16337891 -30.09121094 10.19785156 -30.08789062 11.26367188 C-30.07951172 12.35228516 -30.07113281 13.44089844 -30.0625 14.5625 C-30.05798828 15.65498047 -30.05347656 16.74746094 -30.04882812 17.87304688 C-30.03699826 20.58208495 -30.02051543 23.29101599 -30 26 C-29.67 26 -29.34 26 -29 26 C-29 21.05 -29 16.1 -29 11 C-20.42 11 -11.84 11 -3 11 C-3 15.95 -3 20.9 -3 26 C-2.67 26 -2.34 26 -2 26 C-2 18.41 -2 10.82 -2 3 C-9.85272598 -0.36545399 -22.67067941 -4.32932059 -30 3 Z M-26 13 C-26 13.33 -26 13.66 -26 14 C-19.4 14 -12.8 14 -6 14 C-6 13.67 -6 13.34 -6 13 C-12.6 13 -19.2 13 -26 13 Z M-26 17 C-26 17.33 -26 17.66 -26 18 C-19.4 18 -12.8 18 -6 18 C-6 17.67 -6 17.34 -6 17 C-12.6 17 -19.2 17 -26 17 Z M-26 21 C-26 21.33 -26 21.66 -26 22 C-19.4 22 -12.8 22 -6 22 C-6 21.67 -6 21.34 -6 21 C-12.6 21 -19.2 21 -26 21 Z M-26 25 C-26 25.33 -26 25.66 -26 26 C-19.4 26 -12.8 26 -6 26 C-6 25.67 -6 25.34 -6 25 C-12.6 25 -19.2 25 -26 25 Z " fill="#000000" transform="translate(32,4)"/>
<path d="M0 0 C8.58 0 17.16 0 26 0 C26 1.98 26 3.96 26 6 C17.42 6 8.84 6 0 6 C0 4.02 0 2.04 0 0 Z M3 3 C3 3.33 3 3.66 3 4 C4.65 4 6.3 4 8 4 C8 3.67 8 3.34 8 3 C6.35 3 4.7 3 3 3 Z M11 3 C15 4 15 4 15 4 Z M18 3 C18 3.33 18 3.66 18 4 C19.65 4 21.3 4 23 4 C23 3.67 23 3.34 23 3 C21.35 3 19.7 3 18 3 Z " fill="#000000" transform="translate(3,8)"/>
</svg>
