<svg version="1.2" xmlns="http://www.w3.org/2000/svg" viewBox="0 0 70 70" width="70" height="70">
	<title>logo_edit</title>
	<style>
		.s0 { fill: #000000 } 
	</style>
	<g>
		<path fill-rule="evenodd" class="s0" d="m41.9 4.2c0.9 0.2 3.9 1.3 9.5 3.2 2 0.8 3.7 1.3 3.7 1.3 0.1 0 1.4-0.7 3-1.6 1.5-0.9 3.3-2 4-2.3 1.1-0.6 1.1-0.6 2.5-0.6 1.1 0 1.5 0.1 1.9 0.3 1.2 0.6 0.7 1.9-1.3 3.4-0.9 0.6-6.4 4.3-6.7 4.4-0.1 0-0.2 0.7-0.2 1.6-0.4 4.4-1 11.6-1 11.9-0.1 0.3-1.8 1.3-2 1.2-0.1-0.2-2.3-10.6-2.3-11.1q0-0.6-0.5-0.2c-0.2 0.1-1.6 1-3.1 1.9-1.4 0.9-2.8 1.8-3 1.9-0.2 0.2-0.3 0.5-0.5 1.6-0.6 3.6-0.5 3.2-1.2 3.7l-0.7 0.5-0.2-0.9c-0.2-0.5-0.5-1.5-0.7-2.2-0.5-1.9-0.5-1.9-0.8-1.2-0.1 0.3-0.5 0.8-0.8 1.1-0.4 0.3-1.4 1.3-2.2 2.2-1.3 1.3-1.6 1.7-1.6 2 0.1 0.1 0.1 1.1 0.2 2.1l0.1 1.9h7.4v-0.7c0-0.4-0.2-1.3-0.3-2-0.2-0.8-0.2-1.4-0.2-1.5 0.1-0.1 0.5-0.3 0.9-0.6 0.8-0.5 0.8-0.5 0.8-0.2 0.1 0.2 0.2 0.9 0.4 1.5 0.4 1.7 0.5 5.1 0.2 7-1.4 8.6-7.9 15.2-16.5 16.5-1.6 0.3-5.1 0.2-6.6-0.1-1.5-0.4-3.3-1-4.7-1.7-1.4-0.7-3.1-1.8-3.1-1.9 0-0.1 0.3-0.4 0.7-0.6l0.7-0.5 1.5 0.7c0.8 0.4 1.6 0.8 1.6 0.7 0 0 0-0.1-0.1-0.3 0-0.1-0.1-0.7-0.2-1.4-0.1-2.3-0.2-2.3-1.6-1.4-2.1 1.4-6 3.1-6.9 3.1-0.1 0-0.2 0-0.2 0.1 0.1 0.2 3.9 4.3 5.8 6.3 2.7 2.8 7.6 7.3 9.7 9l0.8 0.6 1.2-1c2.3-1.9 4.9-4.2 8.3-7.7 4.7-4.7 6.9-7.3 8.9-10.8 3.5-5.8 4.6-11.7 3.4-17.4-0.3-1.3-1-3.4-1.4-4.2-0.1-0.3-0.2-0.5-0.1-0.6 0.2-0.1 2.1-1.3 2.2-1.3 0.1 0 1.1 2.7 1.6 4.3 1.1 3.8 1.2 7.9 0.3 11.7-1.4 5.9-4.3 10.9-9.6 16.9-4.4 4.8-13.8 13.3-14.8 13.3-0.9 0-5.8-4.2-10.7-9.1-3.2-3.2-5.3-5.5-7.5-8.3-1.2-1.5-1.3-1.6-1.8-1.6q-1.5-0.2-2.4-1.4c-0.5-0.7-1.1-1.9-1-2 0 0 0.3 0 0.7 0.1 0.8 0.3 2.4 0.5 3.2 0.3 2.2-0.3 5.4-2.3 10.2-6.1 1.4-1.1 3.1-2.6 7-6 4.4-3.9 5.9-5.2 9.3-7.7 2.9-2.2 4.2-3.1 5.6-4 0.7-0.5 1.3-0.9 1.3-0.9 0-0.1-0.9-1-2-2.1-1.1-1.1-2.1-2-2.1-2.1 0 0 0.3-0.2 0.5-0.4 0.4-0.3 0.5-0.3 1.2-0.1 0.4 0 1.5 0.3 2.4 0.6l1.7 0.5 2.8-1.6c1.5-1 2.8-1.8 2.9-1.8 0.1-0.1-0.6-0.7-2.6-2.2-4.2-3.1-7-5.2-7-5.4 0-0.1 0.4-0.4 0.9-0.7 0.3-0.2 0.5-0.1 1.2 0.1zm-9.5 1.8c4.1 0.7 8.7 2.9 11.6 5.4 1.5 1.2 1.7 1.4 1.6 1.5-0.1 0-1.1-0.2-2.4-0.5-2-0.5-2.7-0.7-4.3-1.5-4.4-2.1-8.5-2.9-12.6-2.6-12.3 1.1-21.3 11.4-20.6 23.7 0.2 3.7 1.4 7.8 3.2 10.3l0.4 0.6-0.4 0.1c-0.1 0.1-0.8 0.1-1.4 0-1.3 0-1.2 0-2.3-1.9-0.8-1.6-1.5-3.7-1.9-5.7-0.2-1.3-0.3-2-0.3-4.4 0-3.2 0.1-4.2 0.8-6.8 1-4.1 2.9-7.6 6-10.8 3.9-4.1 8.5-6.5 14.1-7.5 2-0.3 6.3-0.3 8.5 0.1zm-4 5.4c2.1 0 3.5 0.3 5.3 0.9 1.1 0.4 3.4 1.5 3.6 1.7 0.1 0-0.1 0.3-0.4 0.6-0.3 0.3-0.6 0.6-0.6 0.7 0 0.2 0 0.2-1.6-0.4-0.7-0.3-1.6-0.6-1.9-0.6l-0.4-0.1 0.6 0.7c1 1.1 2.3 3.1 2.9 4.5 0.3 0.6 0.5 1.1 0.5 1.2 0 0 0.6-0.2 1.4-0.3 0.7-0.2 1.4-0.4 1.6-0.4 0.3 0 0.3 0.1-0.3 0.5-0.5 0.4-1.5 1-2.2 1.4-0.2 0.1-0.5 0.3-0.6 0.6-0.4 0.6-0.7 0.7-1 0.4-0.2-0.3-0.3-0.3-1.4-0.1-1 0.2-2.6 0.3-4.4 0.3l-0.8 0.1v5.3l-0.8 0.7-0.9 0.7 0.1-3.3c0.1-1.9 0.1-3.3 0-3.4-0.1 0-0.7-0.1-1.4-0.1-1.3-0.1-1.3-0.1-1.3 0.3-0.1 0.2-0.2 0.3-0.4 0.4-0.2 0-0.7-0.4-0.9-0.9-0.1-0.2-0.3-0.2-0.5-0.1-0.4 0.1-0.4 0.1-0.4 0.8 0.1 1.1 0.1 1.1-0.7 1.1-0.6-0.1-0.8-0.1-1.2 0.2-1 0.5-1.1 0.7-1.2 3.1-0.1 1.1-0.1 2.2-0.1 2.3 0.1 0.2 0.5 0.2 3.6 0.2h3.4l-1.4 1.4h-2c-1.2 0.1-2.4 0.1-2.9 0.1h-0.7v1.5l0.7 0.4c0.9 0.3 1.4 0.7 1.4 1 0 0.1-0.5 0.5-1.1 1-0.6 0.5-1.7 1.3-2.4 1.9-0.7 0.5-1.4 0.9-1.4 0.9-0.1-0.1 0.3-1.9 0.6-2.4 0.4-0.8 0.4-1-0.4-1.2-0.6-0.2-0.6-0.2-1.2-1.3-0.9-1.5-1.3-1.9-2.2-2-0.4 0-1.1-0.1-1.6 0-0.8 0-0.9 0-0.9 0.4-0.1 0.5 0.2 2.1 0.5 3.5 0.4 1.4 1.1 3.2 1.8 4.3l0.5 0.9-0.8 0.4c-0.4 0.2-0.8 0.4-0.9 0.4-0.2 0-1.5-2.6-2-4-2.1-6.2-1.2-12.9 2.5-18 1.6-2.3 4.6-4.8 7.1-6.2 1.9-0.9 4.5-1.7 6.4-2 0.5 0 1.7-0.1 2.8 0zm17 20.4h-7.4l-0.1 1.4c-0.1 1.6-0.5 4-0.9 5.5-0.1 0.6-0.2 1.1-0.2 1.1 0 0 0.6 0.2 1.3 0.4 1.3 0.4 3.2 1.1 3.4 1.3 0.1 0.1 0.2 0.1 0.3 0.1 0.2 0 1.6-2.3 2-3.3 0.8-1.9 1.6-4.7 1.6-6zm-18.2 5.6l-0.1-0.5-0.4 0.5-0.5 0.5 0.5 0.2c0.3 0.1 0.4 0.1 0.4-0.1 0.1-0.1 0.1-0.4 0.1-0.6zm2.1 2.8c-0.2-0.1-0.5 0-0.5 0-0.1 0-0.1 1.9-0.1 4.1 0 3 0 4 0.1 4 0.8 0 2.7-1.8 4-3.7 0.8-1.3 1.9-3.6 1.8-3.7-0.1-0.1-2.4-0.5-3.7-0.6-0.6 0-1.3-0.1-1.6-0.1zm7.1 1.1c-0.1 0-0.5 0.8-0.9 1.7q-1.4 2.9-2.7 4.3c-0.4 0.3-0.6 0.6-0.5 0.6 0.3 0 2.5-0.8 3.3-1.2 1.2-0.6 3.1-2 4.1-2.9l1-1-0.9-0.4c-0.4-0.2-1.4-0.5-2-0.7-0.7-0.2-1.3-0.4-1.4-0.4zm-9.3 2.3c-0.3 0-1 0.4-1.2 0.7-0.3 0.3-1.3 1.8-1.3 2 0 0.4 1.9 2 2.4 2 0.1 0 0.2-0.5 0.2-2.3 0-1.3-0.1-2.4-0.1-2.4zm-4.1 3.9c-0.2 0.1-0.1 0.3 0.3 0.5q0.9 0.5 0.4-0.2-0.5-0.6-0.7-0.3zm13.4-18.8l-0.1-0.7-1.2 1.2-1.2 1.1h2.6v-0.5c0-0.3-0.1-0.8-0.1-1.1zm0.1 3.1h-4.2l-1.8 1.8-1.8 1.9v1.6c0 0.8 0 1.5 0.1 1.5 0.7 0 3.6 0.3 4.8 0.5 0.8 0.2 1.5 0.2 1.6 0.2 0.3-0.3 1-4.1 1.2-6.5zm-7.8-17.8c-0.1 0.1-0.1 7.4 0.1 7.5 0.3 0.1 5.9-0.4 5.9-0.6 0-0.2-1.4-2.8-1.9-3.6-0.7-1-2.3-2.7-2.8-3-0.6-0.3-1.2-0.4-1.3-0.3zm-2 0.1c-0.4 0-1 0.4-1.6 1.1-0.7 0.8-0.8 1.1-0.6 1.6 0.3 0.6 0.3 0.9 0 1.5q-0.3 0.5-0.9 0.9c-0.4 0.2-0.8 0.5-0.9 0.6-0.1 0.3-0.1 0.3 0.3 0.6 1.2 1 1 1 2.6 1l1.5 0.1 0.1-1.3c0-0.6 0-2.3-0.1-3.6-0.1-2.4-0.1-2.5-0.4-2.5zm-3 0.2c-0.7 0-3.8 1.3-4.5 1.9-0.3 0.2-0.3 0.2 0.1 0.2 0.6 0 2.3-0.5 3.1-0.9 0.3-0.2 0.8-0.5 1-0.8 0.3-0.3 0.4-0.4 0.3-0.4zm-1.8 2.7c-0.2-0.1-1.1 0.5-1.3 0.8-0.2 0.3-0.9 0.8-1.3 0.8-0.5 0-1 0.4-1 0.9 0 0.2 0.2 0.5 0.4 0.8 0.3 0.3 0.5 0.6 0.6 0.8 0.2 0.2 0.2 0.2 0.5 0 0.1-0.2 0.5-0.7 0.9-1.2 0.3-0.5 0.8-1.1 1-1.3 0.5-0.4 0.5-0.6 0.5-1q-0.1-0.6-0.3-0.6zm-10.7 10.6q-0.1-1-0.2-0.8c-0.2 0.5-0.5 2.7-0.5 3.2 0 0.4 0 0.4 0.6 0.4 0.7 0 0.7 0 0.4-1.1-0.1-0.4-0.3-1.2-0.3-1.7zm3.1 0c-0.7 0.4-1.3 2.6-0.8 2.8 0.1 0 0.4-0.1 0.8-0.2 0.7-0.2 1.1-0.2 1.3 0 0.1 0.2 0.3 0.2 1 0.2l0.8-0.1 0.1-1.2c0-0.6 0-1.2 0-1.3-0.1 0-0.2 0.2-0.3 0.5-0.3 0.5-0.3 0.5-0.4 0.3-0.1-0.2-0.4-0.5-0.7-0.8-0.6-0.6-1.1-0.6-1.8-0.2zm3.1 4.2h-0.9c-0.9-0.1-0.9 0-0.8 0.2 0 0.1 0.1 0.4 0.2 0.6 0.3 0.8 0.5 1.1 0.8 1.3 0.3 0.2 0.4 0.2 0.6 0 0.1-0.1 0.2-0.4 0.2-1.1z"/>
	</g>
</svg>